<svg width="22" height="24" viewBox="0 0 22 24" fill="none" xmlns="http://www.w3.org/2000/svg">
<g clip-path="url(#clip0_253_1820)">
<path fill-rule="evenodd" clip-rule="evenodd" d="M13.2534 8.54928C14.0546 8.1832 15.074 7.64432 16.0947 6.906C16.3098 7.31552 16.3334 7.67288 16.2225 7.96144C16.144 8.1648 15.9959 8.34168 15.8012 8.4824C15.5904 8.63448 15.3271 8.7452 15.036 8.80504C14.4838 8.91904 13.839 8.85248 13.2534 8.54928ZM13.3923 12.3002L14.4529 12.8615C12.2874 13.9737 11.6988 16.0388 10.9995 18.0502C10.3003 16.0388 9.71151 13.9737 7.54616 12.8615L8.6067 12.3002C8.7093 12.2646 8.79699 12.2003 8.85721 12.1163C8.91743 12.0323 8.94709 11.933 8.94194 11.8326C8.84478 9.9488 9.39984 9.11576 10.1485 8.59272C10.4171 8.40536 10.7102 8.31128 10.9995 8.31128C11.2887 8.31128 11.5819 8.40536 11.8505 8.59272C12.5992 9.11576 13.1542 9.9488 13.0571 11.8326C13.0519 11.933 13.0816 12.0323 13.1418 12.1163C13.202 12.2003 13.2897 12.2646 13.3923 12.3002ZM10.9995 0C12.2254 0.03016 13.4543 0.24824 14.5209 0.67248C15.2594 0.96664 15.9486 1.3552 16.5726 1.81984C16.8544 2.0296 17.0865 2.23224 17.3421 2.46552C18.0315 2.48736 19.0391 1.78552 19.5068 1.1288C18.7018 3.5472 15.0283 6.40312 12.4852 7.49592C12.4841 7.49552 12.4834 7.49496 12.4826 7.49448C12.0262 7.17512 11.5129 7.01544 10.9995 7.01544C10.486 7.01544 9.9728 7.17512 9.51639 7.49448C9.5156 7.49488 9.5149 7.4956 9.51385 7.49592C6.97058 6.40312 3.2972 3.5472 2.49219 1.1288C2.95986 1.78552 3.96741 2.48736 4.65683 2.46552C4.91254 2.23232 5.14458 2.0296 5.42631 1.81984C6.05034 1.3552 6.7395 0.96664 7.47807 0.67248C8.54472 0.24824 9.77366 0.03016 10.9995 0ZM8.74551 8.54928C7.94443 8.1832 6.92493 7.64432 5.90437 6.906C5.68917 7.31552 5.6656 7.67288 5.77639 7.96144C5.85504 8.1648 6.00311 8.34168 6.1977 8.4824C6.40862 8.63448 6.67193 8.7452 6.96299 8.80504C7.51526 8.91904 8.15998 8.85248 8.74551 8.54928Z" fill="#3E4A5A"/>
<path fill-rule="evenodd" clip-rule="evenodd" d="M17.213 6.00123C17.7749 5.48163 18.27 4.90651 18.668 4.39331L18.8702 4.74203C19.5212 5.93539 19.8594 7.12395 19.8594 8.46155L19.858 10.5841L19.8702 11.6844C19.9173 14.3857 20.5552 17.1187 22 19.6199L18.977 17.3861L16.838 20.5668L14.5909 18.6283L11 23.9683L7.40911 18.6284L5.16206 20.5669L3.02308 17.3862L0 19.6199C1.44484 17.1188 2.08267 14.3858 2.1299 11.6845L2.14212 10.5842L2.14072 8.46163C2.14072 7.12395 2.47884 5.93539 3.12994 4.74211L3.33204 4.39339C3.73013 4.90659 4.22513 5.48163 4.7871 6.00131L4.61162 6.33531C4.27071 6.98403 4.15783 7.70939 4.4234 8.39923C4.5946 8.84355 4.90705 9.22459 5.30986 9.51547C5.70097 9.79795 6.16384 9.98835 6.64845 10.0883C6.96414 10.1535 7.28575 10.1803 7.60528 10.1711C7.53072 10.5584 7.49816 10.9601 7.49606 11.3694L4.64444 12.8787L6.84497 14.009C7.02085 14.0994 7.18828 14.2029 7.34556 14.3185C9.15977 15.8111 10.2505 20.2269 11.0001 22.3838C11.7497 20.2269 12.8404 15.8111 14.6547 14.3185C14.812 14.2029 14.9794 14.0993 15.1553 14.009L17.3558 12.8787L14.5041 11.3694C14.502 10.9601 14.4695 10.5584 14.3949 10.1711C14.7144 10.1803 15.036 10.1535 15.3517 10.0883C15.8363 9.98835 16.2993 9.79795 16.6903 9.51547C17.093 9.22459 17.4056 8.84355 17.5767 8.39923C17.8424 7.70939 17.7294 6.98411 17.3886 6.33531L17.213 6.00123Z" fill="#3E4A5A"/>
</g>
<defs>
<clipPath id="clip0_253_1820">
<rect width="22" height="24" fill="#3E4A5A"/>
</clipPath>
</defs>
</svg>
