<svg width="82" height="82" viewBox="0 0 82 82" fill="none" xmlns="http://www.w3.org/2000/svg">
<path d="M70.4897 15.2646C70.5352 15.7424 70.4023 16.2197 70.1175 16.6049L69.8994 16.8518L48.7028 38.0436L47.7926 38.9535L48.5537 39.9914L70.124 69.4065C70.3257 69.6817 70.4513 70.005 70.4885 70.3441C70.5256 70.6832 70.4728 71.0261 70.3355 71.3383C70.1982 71.6506 69.9811 71.9213 69.706 72.1231C69.4405 72.318 69.13 72.4422 68.8037 72.4842L68.5163 72.5H53.8597C53.5934 72.4999 53.33 72.4451 53.0858 72.3391C52.8537 72.2383 52.6437 72.0933 52.4673 71.9122L52.2665 71.6691L37.5625 51.6263L36.5285 50.2167L35.2924 51.4529L14.819 71.9283C14.8188 71.9285 14.8185 71.9288 14.8183 71.929C14.4684 72.2773 13.9991 72.4795 13.5056 72.4946C13.0117 72.5097 12.5306 72.3362 12.16 72.0095C11.7894 71.6827 11.5571 71.2272 11.5103 70.7354C11.4648 70.2576 11.5976 69.7803 11.8825 69.3951L12.1007 69.148L33.2906 47.9527L34.2002 47.0429L33.4395 46.0053L11.876 16.5935C11.876 16.5935 11.8758 16.5932 11.8757 16.5932C11.6742 16.318 11.5487 15.9949 11.5115 15.6559C11.4744 15.3168 11.5272 14.9739 11.6645 14.6617C11.8018 14.3494 12.0189 14.0787 12.2939 13.8769C12.5595 13.682 12.87 13.5578 13.1964 13.5158L13.4837 13.5L28.1403 13.5C28.1404 13.5 28.1405 13.5 28.1406 13.5C28.1407 13.5 28.1408 13.5 28.141 13.5C28.407 13.5002 28.6701 13.555 28.9141 13.6609C29.1463 13.7617 29.3563 13.9068 29.5327 14.0878L29.7334 14.3308L44.4304 34.3701L45.4642 35.7796L46.7004 34.5439L67.181 14.0717C67.181 14.0717 67.181 14.0717 67.1811 14.0716C67.531 13.7229 68.0006 13.5205 68.4944 13.5054C68.9883 13.4903 69.4694 13.6638 69.84 13.9905C70.2106 14.3173 70.4428 14.7728 70.4897 15.2646Z" fill="#151515" stroke="#151515" stroke-width="3"/>
<path d="M46.347 30.1903L66.828 9.71755C66.8283 9.7173 66.8285 9.71705 66.8288 9.7168C67.2686 9.27885 67.8587 9.02458 68.4791 9.00564C69.1 8.98668 69.7048 9.20473 70.1706 9.61549C70.6365 10.0262 70.9285 10.5989 70.9874 11.2171C71.0454 11.8255 70.8734 12.4331 70.5059 12.9205L70.2639 13.1945L49.0563 34.3971L48.4495 35.0038L48.9569 35.6957L70.5273 65.1109C70.5274 65.111 70.5275 65.1111 70.5275 65.1112C70.7809 65.4571 70.9388 65.8635 70.9855 66.2897C71.0321 66.716 70.9658 67.1471 70.7932 67.5396C70.6205 67.9322 70.3476 68.2725 70.0019 68.5262C69.6629 68.775 69.2655 68.9321 68.8483 68.9825L68.5301 69H53.8594C53.8593 69 53.8592 69 53.859 69C53.5245 68.9998 53.1936 68.931 52.8867 68.7977C52.5883 68.6681 52.3189 68.4804 52.0941 68.2455L51.8719 67.9765L37.1594 47.922L36.47 46.9823L35.646 47.8065L15.172 68.2824C15.1718 68.2826 15.1716 68.2828 15.1714 68.283C14.7316 68.7211 14.1414 68.9754 13.5208 68.9944C12.9 69.0133 12.2952 68.7953 11.8293 68.3845C11.3635 67.9737 11.0714 67.4011 11.0125 66.7829C10.9546 66.1745 11.1266 65.5669 11.4941 65.0795L11.7361 64.8055L32.937 43.5992L33.5434 42.9927L33.0363 42.3009L11.4727 12.8891C11.4726 12.889 11.4726 12.8889 11.4725 12.8888C11.2191 12.543 11.0612 12.1365 11.0145 11.7103C10.9679 11.284 11.0342 10.8529 11.2068 10.4604C11.3795 10.0678 11.6523 9.72755 11.9981 9.47378C12.3371 9.22497 12.7345 9.06788 13.1517 9.01752L13.47 9L28.1405 9C28.1406 9 28.1406 9 28.1407 9C28.1408 9 28.1409 9 28.141 9C28.4755 9.0002 28.8064 9.06905 29.1133 9.20229C29.4117 9.33185 29.6811 9.51962 29.9059 9.7545L30.1281 10.0235L44.8336 30.0744L45.5228 31.0141L46.347 30.1903Z" fill="#7EC8E3" stroke="#151515" stroke-width="2"/>
</svg>
